<svg width="55" height="18" viewBox="0 0 55 18" fill="none" xmlns="http://www.w3.org/2000/svg">
<path d="M12.6406 17H15.9394L10.7556 0.034998H5.97245L0.7887 17H4.08745L4.88858 14.361H11.816L12.6406 17ZM5.80751 11.345L8.3287 3.051L10.897 11.345H5.80751ZM24.239 3.94637C23.485 3.9935 22.7074 4.182 22.0241 4.60612C21.435 4.95956 20.9874 5.45437 20.6575 6.01987V4.27625H17.83V17H21.058V10.214C21.058 9.2715 21.3172 8.42325 21.8827 7.81062C22.3304 7.33937 22.9902 7.0095 23.9091 6.93881C24.828 6.86812 25.6999 7.0095 26.3596 7.26869V4.29981C25.6527 4.01706 24.9223 3.89925 24.239 3.94637ZM39.6338 7.12731C39.4453 6.75031 39.2097 6.39687 38.927 6.04344C37.7488 4.65325 35.9345 3.92281 34.0495 3.92281C32.2352 3.92281 30.4209 4.58256 29.1956 6.04344C28.1353 7.33937 27.6405 8.91806 27.6405 10.6381C27.6405 12.3582 28.1353 13.9369 29.1956 15.2092C30.3738 16.623 32.1881 17.377 34.0495 17.3299C35.911 17.377 37.7488 16.5994 38.927 15.2092C39.2097 14.8794 39.4218 14.5259 39.6338 14.1725L36.6178 12.8766C36.5472 13.0179 36.4765 13.1357 36.3822 13.2771C35.8638 13.984 34.992 14.3374 34.0495 14.3374C33.1306 14.3374 32.2588 13.984 31.7404 13.2771C31.1985 12.5702 31.0335 11.6042 31.01 10.6381C31.0335 9.67206 31.1985 8.706 31.7404 7.99912C32.2588 7.29225 33.1306 6.91525 34.0495 6.91525C34.992 6.91525 35.8638 7.29225 36.3822 7.99912C36.4765 8.11694 36.5707 8.28187 36.6414 8.42325L39.6338 7.12731ZM52.425 5.33656C51.4118 4.41762 49.9038 3.87569 48.4901 3.92281C47.3355 3.96994 46.0632 4.34694 45.05 5.14806V0.034998H42.2225V17H45.4505V11.4628C45.4505 10.591 45.4741 9.71919 45.5919 9.15369C45.7333 8.44681 46.0632 7.88131 46.5344 7.52787C46.9585 7.22156 47.4533 7.05662 48.0424 7.03306C48.9142 7.03306 49.5975 7.26869 50.0452 7.73994C50.705 8.39969 50.8935 9.48356 50.8935 10.6381V17H54.1451V10.6381C54.1451 8.42325 53.933 6.72675 52.425 5.33656Z" fill="#2B59C4"/>
</svg>
