<svg width="106" height="19" viewBox="0 0 106 19" fill="none" xmlns="http://www.w3.org/2000/svg">
<path d="M12.2893 9.72956C12.0301 9.39969 11.7473 9.09337 11.441 8.81062C11.4646 8.78706 11.5117 8.73994 11.5353 8.69281C12.1714 7.89169 12.5484 6.85494 12.5249 5.86531C12.5013 4.82856 12.1714 3.79181 11.5353 2.99069C10.9698 2.166 10.0979 1.55337 9.10831 1.27062C8.63706 1.10569 8.14225 1.035 7.64744 1.035H0.885V18H8.048C8.58994 18 9.13188 17.8822 9.65025 17.7408C10.687 17.4109 11.6295 16.7747 12.2893 15.9029C12.949 14.984 13.3024 13.9001 13.3024 12.8162C13.3024 11.6852 12.949 10.6014 12.2893 9.72956ZM7.62388 4.02744C8.00088 4.02744 8.56638 4.33375 8.802 4.64006C9.10831 4.96994 9.24969 5.41762 9.27325 5.86531C9.29681 6.26587 9.13188 6.66644 8.87269 6.97275C8.6135 7.30262 8.14225 7.56181 7.81238 7.6325H4.13663V4.02744H7.62388ZM10.0744 12.8162C10.0508 13.4289 9.83875 14.0179 9.3675 14.4185C8.9905 14.7484 8.51925 14.984 8.00088 14.984H4.13663V10.6485H8.00088C8.54281 10.6485 8.9905 10.7663 9.46175 11.2376C9.86231 11.6617 10.0979 12.2507 10.0744 12.8162ZM18.7613 12.5099H28.1156C28.1392 12.2272 28.1627 11.9209 28.1627 11.6381C28.1627 9.94162 27.6679 8.31581 26.6076 7.04344C25.4295 5.62969 23.6152 4.92281 21.7302 4.92281C19.8452 4.92281 18.0308 5.65325 16.8527 7.04344C15.7924 8.31581 15.3447 9.87094 15.2976 11.6381C15.2505 13.3111 15.7688 14.9133 16.8527 16.2328C18.0308 17.6466 19.8452 18.2592 21.7302 18.3534C23.6152 18.4477 25.453 17.7172 26.7254 16.3035C27.0082 15.9736 27.2673 15.6202 27.4794 15.2667L24.2985 13.8766C24.2042 13.9944 24.1571 14.1357 24.0628 14.2771C23.5209 14.984 22.6727 15.361 21.7302 15.361C20.8112 15.361 19.9394 14.984 19.421 14.2771C19.044 13.7823 18.8555 13.1697 18.7613 12.5099ZM21.7302 7.91525C22.6727 7.91525 23.5209 8.26869 24.0628 8.99912C24.2749 9.30544 24.4398 9.65887 24.5577 10.0359H18.9027C19.0205 9.65887 19.1854 9.30544 19.421 8.99912C19.9394 8.26869 20.8112 7.91525 21.7302 7.91525ZM30.8736 18V0.681561H34.0781V18H30.8736ZM43.2068 18.3534C45.1153 18.3534 46.8825 17.6466 48.0842 16.2328C49.1681 14.8897 49.6629 13.4524 49.6629 11.6381C49.6629 9.91806 49.2152 8.3865 48.0842 7.04344C46.9061 5.62969 45.0918 4.92281 43.2068 4.92281C41.3453 4.92281 39.5075 5.65325 38.3293 7.04344C37.3162 8.26869 36.7742 9.84737 36.7742 11.6381C36.7742 13.3817 37.2455 14.9133 38.3293 16.2328C39.5075 17.623 41.3218 18.3534 43.2068 18.3534ZM45.5395 14.2771C45.0211 14.984 44.1493 15.361 43.2068 15.361C42.2643 15.361 41.3925 14.984 40.8741 14.2771C40.3322 13.5702 40.1672 12.6042 40.1672 11.6381C40.1672 10.6721 40.3322 9.68244 40.8741 8.97556C41.3925 8.26869 42.2643 7.91525 43.2068 7.91525C44.1493 7.91525 45.0211 8.26869 45.5395 8.97556C46.0814 9.68244 46.2699 10.6721 46.2699 11.6381C46.2699 12.6042 46.0814 13.5702 45.5395 14.2771ZM60.5956 5.27625V10.8134C60.5956 11.6852 60.5721 12.5571 60.4542 13.1226C60.3129 13.8294 59.983 14.3949 59.5117 14.7484C59.0876 15.0547 58.5928 15.2196 58.0037 15.2432C57.1319 15.2432 56.4486 15.0076 56.0009 14.5363C55.3412 13.8766 55.1527 12.7927 55.1527 11.6381V5.27625H51.9011V11.6381C51.9011 13.853 52.1131 15.5495 53.6211 16.9397C54.6343 17.8586 56.1423 18.4006 57.5561 18.3534C58.7106 18.3063 59.983 17.9293 60.9962 17.1282V18H63.8237V5.27625H60.5956ZM77.3969 8.64569C76.902 7.30262 75.936 6.19519 74.6872 5.559C73.8154 5.11131 72.8493 4.92281 71.9775 4.92281C71.1057 4.89925 70.1867 4.9935 69.1971 5.41762C67.854 6.00669 66.8644 7.27906 66.8644 8.88131C66.8644 9.77669 67.3121 10.8134 68.1839 11.4732C68.8437 11.9916 69.5505 12.2979 70.7051 12.6042C71.412 12.7927 72.0717 12.9576 72.755 13.1461C73.1792 13.2639 73.7682 13.4524 74.0745 13.7587C74.2395 13.9237 74.2866 14.0886 74.2866 14.3242C74.2395 14.5599 74.1924 14.7012 73.9567 14.9133C73.5797 15.2196 72.755 15.3374 72.166 15.3374C71.3884 15.3374 70.6109 15.2196 70.0454 14.607C69.6919 14.2536 69.4563 13.5467 69.4563 13.1697L66.4167 13.9237C66.4639 14.5834 67.1707 15.9972 67.7598 16.6569C68.9379 17.9057 70.4224 18.3534 72.166 18.3534C73.4619 18.3534 74.6872 18.1649 75.7004 17.5287C76.7607 16.8454 77.4204 15.8087 77.5147 14.607C77.6089 13.3111 77.067 12.2272 76.0302 11.4261C75.2055 10.7427 74.5929 10.6014 73.5326 10.2715C72.8964 10.1066 72.166 9.91806 71.5298 9.72956C70.8936 9.54106 70.3752 9.329 70.1867 9.09337C70.1632 9.02269 70.116 8.92844 70.116 8.81062C70.116 8.66925 70.1867 8.45719 70.5402 8.22156C70.87 8.03306 71.3649 7.93881 71.9304 7.93881C72.4487 7.93881 72.92 8.05662 73.297 8.26869C73.7211 8.48075 74.1452 8.952 74.2866 9.39969L77.3969 8.64569ZM85.826 18.3534C87.7346 18.3534 89.5018 17.6466 90.7035 16.2328C91.7874 14.8897 92.2822 13.4524 92.2822 11.6381C92.2822 9.91806 91.8345 8.3865 90.7035 7.04344C89.5254 5.62969 87.711 4.92281 85.826 4.92281C83.9646 4.92281 82.1267 5.65325 80.9486 7.04344C79.9354 8.26869 79.3935 9.84737 79.3935 11.6381C79.3935 13.3817 79.8647 14.9133 80.9486 16.2328C82.1267 17.623 83.941 18.3534 85.826 18.3534ZM88.1587 14.2771C87.6404 14.984 86.7685 15.361 85.826 15.361C84.8835 15.361 84.0117 14.984 83.4934 14.2771C82.9514 13.5702 82.7865 12.6042 82.7865 11.6381C82.7865 10.6721 82.9514 9.68244 83.4934 8.97556C84.0117 8.26869 84.8835 7.91525 85.826 7.91525C86.7685 7.91525 87.6404 8.26869 88.1587 8.97556C88.7007 9.68244 88.8892 10.6721 88.8892 11.6381C88.8892 12.6042 88.7007 13.5702 88.1587 14.2771ZM102.727 5.27625L99.7114 14.0886L96.6719 5.27625H93.4674L98.1092 18H101.29L105.932 5.27625H102.727Z" fill="#2C3041"/>
</svg>
