<svg width="182" height="74" viewBox="0 0 182 74" fill="none" xmlns="http://www.w3.org/2000/svg">
<circle cx="145" cy="37" r="37" fill="#AFCBFF"/>
<path d="M13.2893 35.7296C13.0301 35.3997 12.7473 35.0934 12.441 34.8106C12.4646 34.7871 12.5117 34.7399 12.5353 34.6928C13.1714 33.8917 13.5484 32.8549 13.5249 31.8653C13.5013 30.8286 13.1714 29.7918 12.5353 28.9907C11.9698 28.166 11.0979 27.5534 10.1083 27.2706C9.63706 27.1057 9.14225 27.035 8.64744 27.035H1.885V44H9.048C9.58994 44 10.1319 43.8822 10.6503 43.7408C11.687 43.4109 12.6295 42.7747 13.2893 41.9029C13.949 40.984 14.3024 39.9001 14.3024 38.8162C14.3024 37.6852 13.949 36.6014 13.2893 35.7296ZM8.62388 30.0274C9.00088 30.0274 9.56638 30.3337 9.802 30.6401C10.1083 30.9699 10.2497 31.4176 10.2733 31.8653C10.2968 32.2659 10.1319 32.6664 9.87269 32.9727C9.6135 33.3026 9.14225 33.5618 8.81238 33.6325H5.13663V30.0274H8.62388ZM11.0744 38.8162C11.0508 39.4289 10.8388 40.0179 10.3675 40.4185C9.9905 40.7484 9.51925 40.984 9.00088 40.984H5.13663V36.6485H9.00088C9.54281 36.6485 9.9905 36.7663 10.4618 37.2376C10.8623 37.6617 11.0979 38.2507 11.0744 38.8162ZM19.7613 38.5099H29.1156C29.1392 38.2272 29.1627 37.9209 29.1627 37.6381C29.1627 35.9416 28.6679 34.3158 27.6076 33.0434C26.4295 31.6297 24.6152 30.9228 22.7302 30.9228C20.8452 30.9228 19.0308 31.6532 17.8527 33.0434C16.7924 34.3158 16.3447 35.8709 16.2976 37.6381C16.2505 39.3111 16.7688 40.9133 17.8527 42.2328C19.0308 43.6466 20.8452 44.2592 22.7302 44.3534C24.6152 44.4477 26.453 43.7172 27.7254 42.3035C28.0082 41.9736 28.2673 41.6202 28.4794 41.2667L25.2985 39.8766C25.2042 39.9944 25.1571 40.1357 25.0628 40.2771C24.5209 40.984 23.6727 41.361 22.7302 41.361C21.8112 41.361 20.9394 40.984 20.421 40.2771C20.044 39.7823 19.8555 39.1697 19.7613 38.5099ZM22.7302 33.9152C23.6727 33.9152 24.5209 34.2687 25.0628 34.9991C25.2749 35.3054 25.4398 35.6589 25.5577 36.0359H19.9027C20.0205 35.6589 20.1854 35.3054 20.421 34.9991C20.9394 34.2687 21.8112 33.9152 22.7302 33.9152ZM31.8736 44V26.6816H35.0781V44H31.8736ZM44.2068 44.3534C46.1153 44.3534 47.8825 43.6466 49.0842 42.2328C50.1681 40.8897 50.6629 39.4524 50.6629 37.6381C50.6629 35.9181 50.2152 34.3865 49.0842 33.0434C47.9061 31.6297 46.0918 30.9228 44.2068 30.9228C42.3453 30.9228 40.5075 31.6532 39.3293 33.0434C38.3162 34.2687 37.7742 35.8474 37.7742 37.6381C37.7742 39.3817 38.2455 40.9133 39.3293 42.2328C40.5075 43.623 42.3218 44.3534 44.2068 44.3534ZM46.5395 40.2771C46.0211 40.984 45.1493 41.361 44.2068 41.361C43.2643 41.361 42.3925 40.984 41.8741 40.2771C41.3322 39.5702 41.1672 38.6042 41.1672 37.6381C41.1672 36.6721 41.3322 35.6824 41.8741 34.9756C42.3925 34.2687 43.2643 33.9152 44.2068 33.9152C45.1493 33.9152 46.0211 34.2687 46.5395 34.9756C47.0814 35.6824 47.2699 36.6721 47.2699 37.6381C47.2699 38.6042 47.0814 39.5702 46.5395 40.2771ZM61.5956 31.2762V36.8134C61.5956 37.6852 61.5721 38.5571 61.4542 39.1226C61.3129 39.8294 60.983 40.3949 60.5117 40.7484C60.0876 41.0547 59.5928 41.2196 59.0037 41.2432C58.1319 41.2432 57.4486 41.0076 57.0009 40.5363C56.3412 39.8766 56.1527 38.7927 56.1527 37.6381V31.2762H52.9011V37.6381C52.9011 39.853 53.1131 41.5495 54.6211 42.9397C55.6343 43.8586 57.1423 44.4006 58.5561 44.3534C59.7106 44.3063 60.983 43.9293 61.9962 43.1282V44H64.8237V31.2762H61.5956ZM78.3969 34.6457C77.902 33.3026 76.936 32.1952 75.6872 31.559C74.8154 31.1113 73.8493 30.9228 72.9775 30.9228C72.1057 30.8992 71.1867 30.9935 70.1971 31.4176C68.854 32.0067 67.8644 33.2791 67.8644 34.8813C67.8644 35.7767 68.3121 36.8134 69.1839 37.4732C69.8437 37.9916 70.5505 38.2979 71.7051 38.6042C72.412 38.7927 73.0717 38.9576 73.755 39.1461C74.1792 39.2639 74.7682 39.4524 75.0745 39.7587C75.2395 39.9237 75.2866 40.0886 75.2866 40.3242C75.2395 40.5599 75.1924 40.7012 74.9567 40.9133C74.5797 41.2196 73.755 41.3374 73.166 41.3374C72.3884 41.3374 71.6109 41.2196 71.0454 40.607C70.6919 40.2536 70.4563 39.5467 70.4563 39.1697L67.4167 39.9237C67.4639 40.5834 68.1707 41.9972 68.7598 42.6569C69.9379 43.9057 71.4224 44.3534 73.166 44.3534C74.4619 44.3534 75.6872 44.1649 76.7004 43.5287C77.7607 42.8454 78.4204 41.8087 78.5147 40.607C78.6089 39.3111 78.067 38.2272 77.0302 37.4261C76.2055 36.7427 75.5929 36.6014 74.5326 36.2715C73.8964 36.1066 73.166 35.9181 72.5298 35.7296C71.8936 35.5411 71.3752 35.329 71.1867 35.0934C71.1632 35.0227 71.116 34.9284 71.116 34.8106C71.116 34.6692 71.1867 34.4572 71.5402 34.2216C71.87 34.0331 72.3649 33.9388 72.9304 33.9388C73.4487 33.9388 73.92 34.0566 74.297 34.2687C74.7211 34.4807 75.1452 34.952 75.2866 35.3997L78.3969 34.6457ZM86.826 44.3534C88.7346 44.3534 90.5018 43.6466 91.7035 42.2328C92.7874 40.8897 93.2822 39.4524 93.2822 37.6381C93.2822 35.9181 92.8345 34.3865 91.7035 33.0434C90.5254 31.6297 88.711 30.9228 86.826 30.9228C84.9646 30.9228 83.1267 31.6532 81.9486 33.0434C80.9354 34.2687 80.3935 35.8474 80.3935 37.6381C80.3935 39.3817 80.8647 40.9133 81.9486 42.2328C83.1267 43.623 84.941 44.3534 86.826 44.3534ZM89.1587 40.2771C88.6404 40.984 87.7685 41.361 86.826 41.361C85.8835 41.361 85.0117 40.984 84.4934 40.2771C83.9514 39.5702 83.7865 38.6042 83.7865 37.6381C83.7865 36.6721 83.9514 35.6824 84.4934 34.9756C85.0117 34.2687 85.8835 33.9152 86.826 33.9152C87.7685 33.9152 88.6404 34.2687 89.1587 34.9756C89.7007 35.6824 89.8892 36.6721 89.8892 37.6381C89.8892 38.6042 89.7007 39.5702 89.1587 40.2771ZM103.727 31.2762L100.711 40.0886L97.6719 31.2762H94.4674L99.1092 44H102.29L106.932 31.2762H103.727Z" fill="#2C3041"/>
<path d="M129.641 44H132.939L127.756 27.035H122.972L117.789 44H121.087L121.889 41.361H128.816L129.641 44ZM122.808 38.345L125.329 30.051L127.897 38.345H122.808ZM141.239 30.9464C140.485 30.9935 139.707 31.182 139.024 31.6061C138.435 31.9596 137.987 32.4544 137.657 33.0199V31.2762H134.83V44H138.058V37.214C138.058 36.2715 138.317 35.4232 138.883 34.8106C139.33 34.3394 139.99 34.0095 140.909 33.9388C141.828 33.8681 142.7 34.0095 143.36 34.2687V31.2998C142.653 31.0171 141.922 30.8992 141.239 30.9464ZM156.634 34.1273C156.445 33.7503 156.21 33.3969 155.927 33.0434C154.749 31.6532 152.935 30.9228 151.05 30.9228C149.235 30.9228 147.421 31.5826 146.196 33.0434C145.135 34.3394 144.641 35.9181 144.641 37.6381C144.641 39.3582 145.135 40.9369 146.196 42.2092C147.374 43.623 149.188 44.377 151.05 44.3299C152.911 44.377 154.749 43.5994 155.927 42.2092C156.21 41.8794 156.422 41.5259 156.634 41.1725L153.618 39.8766C153.547 40.0179 153.476 40.1357 153.382 40.2771C152.864 40.984 151.992 41.3374 151.05 41.3374C150.131 41.3374 149.259 40.984 148.74 40.2771C148.198 39.5702 148.034 38.6042 148.01 37.6381C148.034 36.6721 148.198 35.706 148.74 34.9991C149.259 34.2922 150.131 33.9152 151.05 33.9152C151.992 33.9152 152.864 34.2922 153.382 34.9991C153.476 35.1169 153.571 35.2819 153.641 35.4232L156.634 34.1273ZM169.425 32.3366C168.412 31.4176 166.904 30.8757 165.49 30.9228C164.336 30.9699 163.063 31.3469 162.05 32.1481V27.035H159.222V44H162.451V38.4628C162.451 37.591 162.474 36.7192 162.592 36.1537C162.733 35.4468 163.063 34.8813 163.534 34.5279C163.959 34.2216 164.453 34.0566 165.042 34.0331C165.914 34.0331 166.598 34.2687 167.045 34.7399C167.705 35.3997 167.893 36.4836 167.893 37.6381V44H171.145V37.6381C171.145 35.4232 170.933 33.7267 169.425 32.3366Z" fill="#2B59C4"/>
</svg>
